# xmcd
#
# Track frame offsets:
# 182
# 11610
# 23037
# 34115
# 43832
# 58565
# 69507
# 82340
# 99720
# 112867
# 125470
# 138042
# 147815
# 161710
# 172120
# 185660
#
# Disc length: 2689 seconds
#
#
# Revision: 0
# Processed by: cddbd v1.5.1PL0 Copyright (c) Steve Scherf et al.
# Submitted via: FreeRIP 2.92 
#
DISCID=dd0a7f10
DTITLE=The Beatles - The hit music of The Beatles
DYEAR=1900
DGENRE=Blues
TTITLE0=I wanna hold your hand
TTITLE1=A hard day's night
TTITLE2=She loves you
TTITLE3=All my loving
TTITLE4=Something
TTITLE5=You're gonna lose that girl
TTITLE6=Penny Lane
TTITLE7=Hey Jude
TTITLE8=I saw her standing there
TTITLE9=Eight days a week
TTITLE10=Yesterday
TTITLE11=I feel fine
TTITLE12=Ticket to ride
TTITLE13=Help
TTITLE14=Get back
TTITLE15=Let it be
EXTD=
EXTT0=
EXTT1=
EXTT2=
EXTT3=
EXTT4=
EXTT5=
EXTT6=
EXTT7=
EXTT8=
EXTT9=
EXTT10=
EXTT11=
EXTT12=
EXTT13=
EXTT14=
EXTT15=
PLAYORDER=
